HIERARCHY
ROOT Hips
{
	OFFSET 0.00 0.00 0.00
	CHANNELS 6 Xposition Yposition Zposition Zrotation Yrotation Xrotation
	JOINT Spine
	{
		OFFSET 0.00000 0.00000 3.80709
		CHANNELS 3 Zrotation Yrotation Xrotation
		JOINT Spine1
		{
			OFFSET 0.00000 -0.66110 3.74925
			CHANNELS 3 Zrotation Yrotation Xrotation
			JOINT Spine2
			{
				OFFSET 0.00000 -0.33181 3.79261
				CHANNELS 3 Zrotation Yrotation Xrotation
				JOINT Spine3
				{
					OFFSET 0.00000 -0.00000 3.80709
					CHANNELS 3 Zrotation Yrotation Xrotation
					JOINT Neck
					{
						OFFSET 0.00000 0.48948 4.89483
						CHANNELS 3 Zrotation Yrotation Xrotation
						JOINT Neck1
						{
							OFFSET 0.00000 0.18562 2.12173
							CHANNELS 3 Zrotation Yrotation Xrotation
							JOINT Head
							{
								OFFSET 0.00000 0.36984 2.09748
								CHANNELS 3 Zrotation Yrotation Xrotation
								End Site
								{
									OFFSET 0.00000 -0.00001 3.59976
								}
							}
						}
					}
					JOINT RightShoulder
					{
						OFFSET 0.00000 -0.00000 3.42638
						CHANNELS 3 Yrotation Zrotation Xrotation
						JOINT RightArm
						{
							OFFSET 6.20556 -0.00000 0.00000
							CHANNELS 3 Zrotation Yrotation Xrotation
							JOINT RightForeArm
							{
								OFFSET 11.98982 -0.00000 0.00000
								CHANNELS 3 Zrotation Yrotation Xrotation
								JOINT RightHand
								{
									OFFSET 8.94491 -0.00000 0.00000
									CHANNELS 3 Yrotation Zrotation Xrotation
									JOINT RightHandMiddle1
									{
										OFFSET 3.86714 -0.00000 0.00000
										CHANNELS 3 Yrotation Zrotation Xrotation
										JOINT RightHandMiddle2
										{
											OFFSET 2.06409 -0.00000 0.00000
											CHANNELS 3 Xrotation Yrotation Zrotation
											JOINT RightHandMiddle3
											{
												OFFSET 1.29302 -0.00000 0.00000
												CHANNELS 3 Xrotation Yrotation Zrotation
												End Site
												{
													OFFSET 0.82729 -0.00000 0.00000
												}
											}
										}
									}
									JOINT RightHandRing
									{
										OFFSET 0.09915 -0.17954 -0.09915
										CHANNELS 3 Zrotation Yrotation Xrotation
										JOINT RightHandRing1
										{
											OFFSET 3.43702 -0.31017 0.00000
											CHANNELS 3 Yrotation Zrotation Xrotation
											JOINT RightHandRing2
											{
												OFFSET 1.93316 -0.17446 0.00000
												CHANNELS 3 Xrotation Yrotation Zrotation
												JOINT RightHandRing3
												{
													OFFSET 1.28980 -0.11640 0.00000
													CHANNELS 3 Xrotation Yrotation Zrotation
													End Site
													{
														OFFSET 0.81920 -0.07393 0.00000
													}
												}
											}
										}
										JOINT RightHandPinky
										{
											OFFSET 0.08261 -0.18773 -0.09915
											CHANNELS 3 Zrotation Yrotation Xrotation
											JOINT RightHandPinky1
											{
												OFFSET 2.91281 -0.65136 0.00000
												CHANNELS 3 Yrotation Zrotation Xrotation
												JOINT RightHandPinky2
												{
													OFFSET 1.51743 -0.33933 0.00000
													CHANNELS 3 Xrotation Yrotation Zrotation
													JOINT RightHandPinky3
													{
														OFFSET 0.99864 -0.22332 0.00000
														CHANNELS 3 Xrotation Yrotation Zrotation
														End Site
														{
															OFFSET 0.74053 -0.16560 0.00000
														}
													}
												}
											}
										}
									}
									JOINT RightHandIndex
									{
										OFFSET 0.09915 0.17954 -0.09915
										CHANNELS 3 Zrotation Yrotation Xrotation
										JOINT RightHandIndex1
										{
											OFFSET 3.76758 0.34000 0.00000
											CHANNELS 3 Yrotation Zrotation Xrotation
											JOINT RightHandIndex2
											{
												OFFSET 1.98813 0.17942 0.00000
												CHANNELS 3 Xrotation Yrotation Zrotation
												JOINT RightHandIndex3
												{
													OFFSET 1.19521 0.10786 0.00000
													CHANNELS 3 Xrotation Yrotation Zrotation
													End Site
													{
														OFFSET 0.74912 0.06760 0.00000
													}
												}
											}
										}
										JOINT RightHandThumb1
										{
											OFFSET 0.08261 0.18773 -0.29744
											CHANNELS 3 Zrotation Yrotation Xrotation
											JOINT RightHandThumb2
											{
												OFFSET 2.45633 0.90164 0.00000
												CHANNELS 3 Yrotation Zrotation Xrotation
												JOINT RightHandThumb3
												{
													OFFSET 1.53922 0.56500 0.00000
													CHANNELS 3 Xrotation Yrotation Zrotation
													End Site
													{
														OFFSET 0.96720 0.35503 0.00000
													}
												}
											}
										}
									}
								}
							}
						}
					}
					JOINT LeftShoulder
					{
						OFFSET 0.00000 -0.00000 3.42638
						CHANNELS 3 Yrotation Zrotation Xrotation
						JOINT LeftArm
						{
							OFFSET -6.20556 -0.00000 0.00000
							CHANNELS 3 Zrotation Yrotation Xrotation
							JOINT LeftForeArm
							{
								OFFSET -11.98982 -0.00000 0.00000
								CHANNELS 3 Zrotation Yrotation Xrotation
								JOINT LeftHand
								{
									OFFSET -8.94491 -0.00000 0.00000
									CHANNELS 3 Yrotation Zrotation Xrotation
									JOINT LeftHandMiddle1
									{
										OFFSET -3.53137 -0.00000 0.00000
										CHANNELS 3 Yrotation Zrotation Xrotation
										JOINT LeftHandMiddle2
										{
											OFFSET -1.89421 -0.00000 0.00000
											CHANNELS 3 Xrotation Yrotation Zrotation
											JOINT LeftHandMiddle3
											{
												OFFSET -1.18243 -0.00000 0.00000
												CHANNELS 3 Xrotation Yrotation Zrotation
												End Site
												{
													OFFSET -0.75907 -0.00000 0.00000
												}
											}
										}
									}
									JOINT LeftHandRing
									{
										OFFSET -0.09915 -0.15386 -0.09915
										CHANNELS 3 Zrotation Yrotation Xrotation
										JOINT LeftHandRing1
										{
											OFFSET -3.14442 -0.28376 0.00000
											CHANNELS 3 Yrotation Zrotation Xrotation
											JOINT LeftHandRing2
											{
												OFFSET -1.77265 -0.15997 0.00000
												CHANNELS 3 Xrotation Yrotation Zrotation
												JOINT LeftHandRing3
												{
													OFFSET -1.18194 -0.10666 0.00000
													CHANNELS 3 Xrotation Yrotation Zrotation
													End Site
													{
														OFFSET -0.75165 -0.06783 0.00000
													}
												}
											}
										}
										JOINT LeftHandPinky
										{
											OFFSET -0.08492 -0.16214 -0.09915
											CHANNELS 3 Zrotation Yrotation Xrotation
											JOINT LeftHandPinky1
											{
												OFFSET -2.66923 -0.59689 0.00000
												CHANNELS 3 Yrotation Zrotation Xrotation
												JOINT LeftHandPinky2
												{
													OFFSET -1.39260 -0.31141 0.00000
													CHANNELS 3 Xrotation Yrotation Zrotation
													JOINT LeftHandPinky3
													{
														OFFSET -0.91801 -0.20529 0.00000
														CHANNELS 3 Xrotation Yrotation Zrotation
														End Site
														{
															OFFSET -0.67947 -0.15194 0.00000
														}
													}
												}
											}
										}
									}
									JOINT LeftHandIndex
									{
										OFFSET -0.09915 0.15386 -0.09915
										CHANNELS 3 Zrotation Yrotation Xrotation
										JOINT LeftHandIndex1
										{
											OFFSET -3.44268 0.31068 0.00000
											CHANNELS 3 Yrotation Zrotation Xrotation
											JOINT LeftHandIndex2
											{
												OFFSET -1.82607 0.16479 0.00000
												CHANNELS 3 Xrotation Yrotation Zrotation
												JOINT LeftHandIndex3
												{
													OFFSET -1.09509 0.09883 0.00000
													CHANNELS 3 Xrotation Yrotation Zrotation
													End Site
													{
														OFFSET -0.68735 0.06203 0.00000
													}
												}
											}
										}
										JOINT LeftHandThumb1
										{
											OFFSET -0.08492 0.16214 -0.29744
											CHANNELS 3 Zrotation Yrotation Xrotation
											JOINT LeftHandThumb2
											{
												OFFSET -2.24995 0.82589 0.00000
												CHANNELS 3 Yrotation Zrotation Xrotation
												JOINT LeftHandThumb3
												{
													OFFSET -1.41110 0.51797 0.00000
													CHANNELS 3 Xrotation Yrotation Zrotation
													End Site
													{
														OFFSET -0.88745 0.32575 0.00000
													}
												}
											}
										}
									}
								}
							}
						}
					}
				}
			}
		}
	}
	JOINT RightUpLeg
	{
		OFFSET 4.10948 0.00000 0.00000
		CHANNELS 3 Zrotation Yrotation Xrotation
		JOINT RightLeg
		{
			OFFSET 0.00000 0.00000 -16.03257
			CHANNELS 3 Xrotation Yrotation Zrotation
			JOINT RightFoot
			{
				OFFSET 0.00000 0.00000 -15.81429
				CHANNELS 3 Zrotation Yrotation Xrotation
				JOINT RightToeBase
				{
					OFFSET 0.00000 5.17902 -1.32242
					CHANNELS 3 Xrotation Yrotation Zrotation
					End Site
					{
						OFFSET 0.00000 2.39290 0.00000
					}
				}
			}
		}
	}
	JOINT LeftUpLeg
	{
		OFFSET -4.10948 0.00000 0.00000
		CHANNELS 3 Zrotation Yrotation Xrotation
		JOINT LeftLeg
		{
			OFFSET 0.00000 0.00000 -16.03257
			CHANNELS 3 Xrotation Yrotation Zrotation
			JOINT LeftFoot
			{
				OFFSET 0.00000 0.00000 -15.81429
				CHANNELS 3 Zrotation Yrotation Xrotation
				JOINT LeftToeBase
				{
					OFFSET 0.00000 5.17902 -1.32242
					CHANNELS 3 Xrotation Yrotation Zrotation
					End Site
					{
						OFFSET 0.00000 2.09643 0.00000
					}
				}
			}
		}
	}
}
MOTION
Frames: 8
Frame Time: 0.008333
 8.6623 26.2944 -2.9870 163.6088 58.2956 88.2276 -2.6282 -5.9439 -18.4994 -2.0987 -6.1502 -18.5231 -2.4422 3.4913 3.8916 -2.4422 3.4913 3.8916 9.5389 22.0092 -32.8467 18.9068 -4.9542 -9.4026 6.6825 -48.6196 25.6014 -13.3380 2.5271 0.5989 59.2457 15.9022 55.4878 124.8347 -0.0000 7.3488 14.7650 0.6164 -0.1624 -5.9020 -48.1990 -4.4066 -0.0000 53.1769 0.0001 -0.0000 38.1465 0.0000 -0.1774 -0.5568 17.4657 9.4305 -30.9462 5.6158 10.6282 63.9278 -6.6435 2.4720 25.5454 -0.5605 -1.2293 -2.8380 6.1155 15.8372 -5.3701 5.1405 16.8651 52.3756 -8.3398 6.3546 26.3334 -1.4880 9.0348 -0.4608 13.4796 34.1697 -50.0641 25.4979 -11.1220 64.9283 7.0890 -2.9259 29.4936 0.7703 7.6174 9.6580 -47.3866 10.2335 1.6887 -4.4734 -1.1900 3.4306 -2.0614 27.1517 -15.4736 7.7914 24.7989 -9.2844 25.7263 -86.3421 0.0000 -43.7435 -24.4838 20.3043 8.9797 -0.9609 -47.6775 -0.7105 -0.0004 -82.4336 -0.0004 -0.0000 -40.9555 -0.0000 3.9762 0.2038 -2.6665 -17.1133 -57.4436 -13.7188 145.4453 -80.9598 139.9533 5.5157 -46.8056 2.3886 1.3846 -4.2067 3.5238 -22.9428 -46.7515 -13.5826 38.9329 -70.4120 28.0070 14.0143 -47.2799 6.1591 -0.7462 2.4764 -18.0611 -32.2523 -51.7746 -28.1772 -132.3526 -83.0378 -126.9850 -2.4725 -25.5494 -0.5607 -19.0205 -2.9463 -4.6507 4.1557 -2.7429 1.6225 -0.0492 -0.1344 0.0826 30.2057 -19.0018 16.6955 -57.2649 0.0000 -0.0000 26.2246 22.4831 39.9956 2.4570 0.0000 -0.0000 0.2757 53.4025 14.7750 -43.9136 0.0000 -0.0000 10.7545 -33.4158 -17.6584 0.3983 -0.0000 0.0000
 8.9432 25.9644 -2.8986 162.8057 57.9821 87.6541 -2.7860 -6.4600 -18.9592 -2.2104 -6.6781 -18.9875 -2.6106 3.9318 3.7383 -2.6106 3.9318 3.7383 9.7893 21.5076 -33.0863 19.0197 -5.1226 -9.0950 6.2400 -48.1956 27.0262 -13.7263 2.3187 0.5662 59.5971 15.8343 56.5731 125.2223 -0.0000 8.0272 15.4062 0.8821 -0.2430 -5.8853 -48.1200 -4.3888 -0.0000 52.7159 0.0001 -0.0000 37.9014 0.0000 -0.1593 -0.5402 17.5534 9.4970 -30.9621 5.6581 10.4165 63.4751 -6.4537 2.4499 25.3452 -0.5509 -1.1776 -2.8261 6.1269 15.9879 -5.4879 5.2249 16.5695 51.8987 -8.1064 6.2623 26.0028 -1.4473 9.0352 -0.4876 13.5236 33.9897 -49.8454 25.2647 -10.8526 64.3914 6.8455 -2.8937 29.2230 0.7546 7.6665 9.6120 -47.3378 10.2472 1.7989 -4.4918 -1.1571 3.3302 -2.0024 28.2504 -16.7796 8.8175 23.1583 -4.2766 24.8185 -68.2934 0.0000 -39.4532 -25.4810 18.8355 8.7470 -1.9523 -51.1862 -1.5215 -0.0004 -82.1488 -0.0004 -0.0000 -41.6596 -0.0001 4.1962 0.2722 -3.1177 -19.7135 -60.2431 -16.4013 149.1063 -80.0316 143.5642 5.5803 -47.1374 2.4359 1.6918 -4.2852 2.9327 -25.8084 -48.1329 -15.9120 39.1930 -70.5130 28.2522 13.9746 -47.2007 6.1300 -0.6600 2.5275 -18.9135 -37.3587 -54.9642 -33.9307 -136.8556 -82.4822 -131.4522 -2.4159 -25.0372 -0.5365 -19.4244 -2.8152 -3.4629 3.2815 -3.2475 1.3320 0.3347 0.8983 -0.5561 29.5667 -19.3823 17.5765 -58.3979 -0.0000 0.0000 26.4763 22.6742 40.0355 2.2257 -0.0000 0.0000 1.1482 53.8950 16.1303 -45.5423 -0.0000 -0.0000 11.3259 -37.2054 -14.1425 0.7833 0.0000 -0.0000
 9.2076 25.6286 -2.8074 161.9671 57.5655 87.2018 -2.8577 -6.8454 -19.3896 -2.2478 -7.0682 -19.4217 -2.7016 4.3493 3.4776 -2.7016 4.3493 3.4776 10.0142 20.5922 -33.5742 19.0035 -5.3585 -8.7661 5.5898 -47.2590 28.9046 -14.1591 2.1807 0.5500 59.9994 15.8630 57.6578 125.5992 -0.0000 8.8214 15.9339 1.2858 -0.3670 -5.9767 -48.1835 -4.4615 -0.0000 52.6573 0.0001 -0.0000 37.9441 0.0000 -0.1574 -0.5515 17.6891 9.6192 -30.9998 5.7370 10.3408 63.3096 -6.3860 2.4473 25.3222 -0.5498 -1.2157 -2.8552 5.9657 15.9686 -5.4001 5.1938 16.4107 51.6379 -7.9817 6.1902 25.7434 -1.4158 9.0660 -0.4969 13.5639 33.9908 -49.8295 25.2594 -10.9192 64.5263 6.9057 -2.9194 29.4387 0.7671 7.9576 9.5679 -46.9961 10.4284 2.2636 -4.6305 -1.0800 3.0965 -1.8647 28.5422 -18.3642 9.7239 19.8573 2.3591 19.7726 -45.6718 0.0000 -29.5913 -20.4727 17.1427 6.2798 -2.8002 -54.9193 -2.2922 -0.0004 -83.2753 -0.0005 -0.0000 -43.1976 -0.0001 4.3684 0.4735 -3.6754 -22.9006 -63.6950 -19.8357 155.5202 -77.7139 149.8591 5.7935 -48.2035 2.5935 2.0723 -4.1567 2.4591 -29.1999 -50.5802 -19.1737 42.7112 -71.7540 31.5817 14.4863 -48.2050 6.5085 -0.6715 2.5341 -19.8038 -42.6180 -57.6978 -39.8806 -143.5073 -81.3716 -138.0384 -2.4605 -25.4413 -0.5555 -19.8415 -2.8585 -3.1144 2.2095 -3.9271 0.9584 0.5617 1.4927 -0.9282 28.9244 -19.6311 18.2828 -59.5388 0.0000 -0.0000 26.6329 23.0249 40.1083 1.9434 0.0000 -0.0000 3.6112 54.3326 19.0100 -47.4976 0.0000 -0.0000 10.8733 -39.1610 -10.0406 0.1165 -0.0000 -0.0000
 9.4739 25.3037 -2.7138 161.2330 57.0078 86.7513 -2.8210 -7.2724 -19.7543 -2.1735 -7.4904 -19.7913 -2.6886 4.8095 3.0832 -2.6886 4.8095 3.0832 9.8659 20.7101 -33.6710 18.8909 -5.3305 -8.4964 5.0808 -47.2355 29.8829 -14.0037 1.8202 0.4539 60.1643 15.4370 58.4427 126.0126 -0.0000 9.5456 16.0693 1.6870 -0.4859 -6.0535 -48.1482 -4.5166 -0.0000 52.7972 0.0001 -0.0000 38.0509 0.0000 -0.1533 -0.5331 17.7704 9.6284 -30.7999 5.7153 10.3855 63.4076 -6.4260 2.4468 25.3174 -0.5496 -1.2227 -2.8488 5.9377 16.0148 -4.9810 5.0925 16.4128 51.6414 -7.9833 6.1657 25.6548 -1.4052 9.0908 -0.5025 13.6118 34.0368 -49.8494 25.3049 -11.0558 64.7983 7.0291 -2.9370 29.5869 0.7758 8.0107 9.6118 -46.8864 10.5043 2.3836 -4.6810 -1.0692 3.0640 -1.8455 28.2675 -18.8835 9.8722 11.3351 9.3736 0.6085 -15.9504 0.0000 -5.1182 -11.0698 9.1305 1.7782 -3.6577 -58.6603 -3.1252 -0.0009 -86.4599 -0.0009 -0.0000 -45.3454 -0.0001 4.3520 0.6815 -4.3438 -27.6992 -67.3533 -24.9103 161.6976 -73.9671 155.8523 6.1837 -50.0443 2.8886 2.1501 -3.9808 2.3395 -32.8902 -53.5920 -23.1286 51.2465 -73.9999 39.7415 15.6493 -50.3416 7.3900 -0.7225 2.5092 -20.3042 -47.1550 -60.0047 -45.0767 -150.9911 -79.4583 -145.4190 -2.5936 -26.6306 -0.6140 -19.8469 -3.0009 -3.9377 1.5392 -3.3771 0.6644 0.7029 1.8565 -1.1576 28.1392 -19.9306 18.9456 -60.5451 -0.0000 -0.0000 26.7018 23.6567 40.1787 1.8857 0.0000 0.0000 6.7674 54.5922 22.9958 -49.6511 0.0000 -0.0000 8.9504 -39.0699 -5.7770 -1.2645 0.0000 -0.0000
 9.7364 25.0378 -2.5897 160.7184 56.3343 86.3686 -2.6725 -7.9223 -20.3817 -1.9678 -8.1249 -20.4270 -2.5900 4.9945 2.7822 -2.5900 4.9945 2.7822 8.6291 25.4832 -31.8196 18.8254 -4.1268 -8.4387 5.7863 -51.4813 26.5837 -11.1284 0.6118 0.1203 59.6731 13.4181 58.1063 126.3623 -0.0000 10.9209 15.5710 2.3954 -0.6673 -5.9195 -47.7761 -4.3906 -0.0000 52.6471 0.0001 -0.0000 37.9917 0.0000 -0.1711 -0.4913 17.7629 9.5374 -30.4770 5.6167 10.3770 63.3889 -6.4183 2.4367 25.2265 -0.5453 -1.2130 -2.8047 6.0238 16.0283 -4.7663 5.0369 16.4497 51.7022 -8.0122 6.1596 25.6329 -1.4025 9.0953 -0.4992 13.6361 33.8195 -49.4789 24.9821 -10.9524 64.5929 6.9356 -2.9070 29.3353 0.7611 7.8127 9.6959 -47.0441 10.3935 2.0927 -4.5953 -1.1288 3.2441 -1.9517 32.7590 -18.1530 11.3357 5.2853 5.7276 -27.2527 2.1696 -0.0000 23.6791 -18.6746 4.1680 1.4072 1.2924 -42.2767 0.8695 -0.0138 -89.7637 -0.0139 -0.0000 -43.0626 -0.0001 3.6142 0.7092 -3.5671 -14.0383 -53.4283 -10.5992 158.5714 -76.1252 152.8314 6.0065 -49.2253 2.7535 1.3514 -3.9720 3.5152 -20.8747 -44.4485 -11.5801 53.1367 -74.3844 41.5602 16.5237 -51.8238 8.0704 -0.5280 2.0389 -18.6720 -28.5368 -48.3186 -23.8361 -150.4787 -79.6215 -144.9152 -2.6921 -27.4954 -0.6588 -17.5503 -3.7163 -7.6370 2.5635 0.8572 0.8867 -0.3607 -0.9990 0.6101 27.2977 -20.2930 19.3465 -61.1398 0.0000 -0.0000 26.4522 24.4510 40.2007 1.7480 -0.0000 -0.0000 8.8047 54.9235 26.2956 -51.4972 0.0000 -0.0000 5.8879 -39.2114 -2.8540 -1.4913 0.0000 -0.0000
 10.0167 24.7303 -2.4885 160.2769 55.6625 85.7954 -2.6117 -8.2558 -20.8367 -1.8776 -8.4518 -20.8865 -2.5583 5.4539 2.6582 -2.5583 5.4539 2.6582 8.6188 25.3687 -31.7513 18.7360 -4.1732 -7.9516 5.0712 -51.2350 28.0506 -10.7405 -0.0173 -0.0033 60.2648 13.0969 58.7860 127.0289 -0.0000 11.0045 15.5997 2.5636 -0.7155 -5.9356 -47.7861 -4.4033 -0.0000 52.4204 0.0001 -0.0000 37.8808 0.0000 -0.1830 -0.4580 17.7673 9.4837 -30.4927 5.5868 10.2232 63.0485 -6.2811 2.4130 25.0106 -0.5352 -1.2003 -2.7674 6.0061 15.9830 -4.7514 5.0177 16.1765 51.2474 -7.7986 6.0963 25.4035 -1.3753 9.1085 -0.4867 13.6847 33.8817 -49.3902 24.9978 -10.9574 64.6028 6.9401 -2.8868 29.1647 0.7512 7.7256 9.7323 -47.0609 10.4549 2.1389 -4.6309 -1.1258 3.2351 -1.9464 35.5784 -18.9028 13.0480 7.4453 3.0135 -39.4676 3.4845 -0.0000 31.1146 -29.1310 5.3481 2.9735 2.5727 -35.6820 1.5013 -0.0033 -89.0178 -0.0033 -0.0000 -40.8359 -0.0000 3.2646 0.6413 -3.0667 -11.1407 -47.4695 -7.5760 151.2715 -79.3667 145.6945 5.7014 -47.7482 2.5250 0.8742 -3.9499 4.4033 -16.4402 -39.7896 -7.8381 48.9472 -73.4831 37.5341 16.2213 -51.3227 7.8335 -0.5007 1.8454 -17.2864 -22.5682 -42.0589 -17.0952 -145.3680 -80.9769 -139.8771 -2.6858 -27.4409 -0.6559 -16.5237 -3.7236 -10.1613 3.3505 2.5495 1.0969 -0.8010 -2.2654 1.3716 26.2425 -20.8749 20.1594 -61.9322 0.0000 0.0000 26.3611 25.1751 40.3023 1.6344 0.0000 -0.0000 11.2538 55.3848 30.3597 -53.4745 -0.0000 0.0000 2.6724 -40.3968 -1.1641 -1.4041 0.0000 -0.0000
 10.3080 24.3766 -2.4091 159.9903 55.1480 85.1680 -2.6120 -8.4270 -20.9742 -1.8627 -8.6223 -21.0262 -2.5598 6.1902 2.5395 -2.5598 6.1902 2.5395 9.7961 20.4773 -33.4327 18.5749 -5.3059 -7.0860 3.5419 -46.2760 33.5916 -12.8910 0.4109 0.0940 61.3101 14.5571 60.4880 128.1753 -0.0000 9.5357 15.9814 2.0962 -0.6002 -6.1151 -48.1606 -4.5636 -0.0000 51.9723 0.0001 -0.0000 37.6720 0.0000 -0.1984 -0.4148 17.7934 9.4377 -30.7870 5.5988 9.9227 62.3590 -6.0140 2.3716 24.6332 -0.5179 -1.2016 -2.7280 5.9796 15.9140 -4.8902 5.0335 15.6451 50.3342 -7.3867 5.9662 24.9299 -1.3200 9.1389 -0.4885 13.7715 34.2003 -49.6115 25.3452 -10.9560 64.6001 6.9389 -2.8637 28.9695 0.7400 7.7084 9.6992 -47.1266 10.4772 2.1108 -4.6391 -1.1180 3.2116 -1.9326 35.9742 -19.7037 13.7515 9.3356 2.9930 -41.8434 2.1830 -0.0000 27.1492 -36.0175 3.0421 2.2095 3.0314 -34.3259 1.7105 -0.0017 -88.0792 -0.0017 -0.0000 -40.2135 -0.0000 3.4084 0.6618 -3.1206 -10.9849 -46.8792 -7.3848 148.3134 -80.2517 142.7831 5.6347 -47.4136 2.4758 0.9695 -4.0108 4.2700 -16.8774 -40.1432 -8.1497 46.8411 -72.9569 35.5176 16.0136 -50.9714 7.6717 -0.4058 1.8050 -17.4384 -22.1171 -40.7801 -16.4043 -142.0816 -81.6458 -136.6283 -2.6090 -26.7669 -0.6209 -16.3715 -3.9669 -10.7697 2.4331 2.3909 0.8155 -0.8228 -2.3296 1.4099 25.2174 -21.7101 21.3314 -62.9605 -0.0000 0.0000 26.5852 25.6260 40.5547 1.5880 -0.0000 -0.0000 13.9478 55.7094 34.8009 -55.6871 0.0000 0.0000 -0.5425 -41.5933 0.3874 -1.0447 0.0000 -0.0000
 10.5893 24.0274 -2.3208 159.9432 54.8955 84.5961 -2.5416 -8.5262 -20.8791 -1.7836 -8.7150 -20.9327 -2.4781 6.8035 2.3919 -2.4781 6.8035 2.3919 10.7366 16.2292 -34.9061 18.2435 -6.2797 -6.6331 2.9883 -41.9682 36.9979 -15.3883 1.3846 0.3810 61.9903 16.6611 62.4577 129.6638 -0.0000 7.6696 16.8432 1.3650 -0.4132 -6.1796 -48.3062 -4.6223 -0.0000 52.0039 0.0001 -0.0000 37.7105 0.0000 -0.1728 -0.4254 17.8137 9.4777 -30.9283 5.6419 10.0040 62.5488 -6.0861 2.3828 24.7359 -0.5225 -1.1728 -2.7477 6.0163 15.9965 -5.0067 5.0936 15.8108 50.6230 -7.5146 5.9944 25.0327 -1.3318 9.1362 -0.5088 13.7805 34.2296 -49.7292 25.4156 -10.8563 64.3991 6.8489 -2.8659 28.9881 0.7410 7.7651 9.6779 -47.0812 10.5329 2.1874 -4.6751 -1.0921 3.1329 -1.8862 35.6169 -19.9786 13.7535 8.7541 3.3330 -32.3691 2.6249 -0.0000 16.2070 -37.3743 2.1247 1.6222 2.9780 -36.0653 1.7542 -0.0016 -88.0675 -0.0017 -0.0000 -40.6261 -0.0000 3.5671 0.7542 -3.2440 -11.5029 -48.7848 -8.0182 149.7225 -79.8523 144.1710 5.6828 -47.6552 2.5113 1.1755 -3.9336 3.9244 -18.1847 -42.1814 -9.3917 46.8734 -72.9654 35.5485 16.0640 -51.0573 7.7109 -0.3981 1.8169 -17.8146 -23.2791 -42.5383 -17.7925 -142.9567 -81.4802 -137.4940 -2.6074 -26.7526 -0.6202 -16.5595 -4.0714 -10.9341 1.6405 2.1175 0.5640 -0.7154 -2.0150 1.2221 24.4729 -22.7590 22.5470 -63.9333 0.0000 0.0000 26.9363 25.9287 40.8925 1.5098 0.0000 -0.0000 15.7394 55.7885 38.3357 -57.9578 0.0000 -0.0000 -2.9668 -42.6701 1.9897 -0.6991 -0.0000 0.0000
